<?xml version="1.0" encoding="UTF-8" standalone="no" ?>
<!DOCTYPE svg PUBLIC "-//W3C//DTD SVG 1.1//EN" "http://www.w3.org/Graphics/SVG/1.1/DTD/svg11.dtd">
<svg xmlns="http://www.w3.org/2000/svg" xmlns:xlink="http://www.w3.org/1999/xlink" version="1.1" width="251" height="251" viewBox="0 0 251 251" xml:space="preserve">
<desc>Created with Fabric.js 3.6.3</desc>
<defs>
</defs>
<g transform="matrix(9 0 0 9 135.2 171)" id="SvgjsG1072"  >
<path style="stroke: rgb(0,0,0); stroke-width: 2; stroke-dasharray: none; stroke-linecap: round; stroke-dashoffset: 0; stroke-linejoin: round; stroke-miterlimit: 10; fill: none; fill-rule: nonzero; opacity: 1;"  transform=" translate(-17.02, -21)" d="M 28.652 12.999 C 28.88 13.962 29 14.967 29 16 c 0 7.18 -5.82 13 -13 13 c -4.602 0 -8.645 -2.391 -10.955 -5.998" stroke-linecap="round" />
</g>
<g transform="matrix(9 0 0 9 45 207)" id="SvgjsG1072"  >
<polyline style="stroke: rgb(0,0,0); stroke-width: 2; stroke-dasharray: none; stroke-linecap: round; stroke-dashoffset: 0; stroke-linejoin: round; stroke-miterlimit: 10; fill: none; fill-rule: nonzero; opacity: 1;"  points="-2,2 -2,-2 2,-2 " />
</g>
<g transform="matrix(9 0 0 9 116.81 81.02)" id="SvgjsG1072"  >
<path style="stroke: rgb(0,0,0); stroke-width: 2; stroke-dasharray: none; stroke-linecap: round; stroke-dashoffset: 0; stroke-linejoin: round; stroke-miterlimit: 10; fill: none; fill-rule: nonzero; opacity: 1;"  transform=" translate(-14.98, -11)" d="M 3.349 19.005 C 3.121 18.04 3 17.034 3 16 C 3 8.82 8.82 3 16 3 c 4.603 0 8.647 2.392 10.957 6.001" stroke-linecap="round" />
</g>
<g transform="matrix(9 0 0 9 207 45)" id="SvgjsG1072"  >
<polyline style="stroke: rgb(0,0,0); stroke-width: 2; stroke-dasharray: none; stroke-linecap: round; stroke-dashoffset: 0; stroke-linejoin: round; stroke-miterlimit: 10; fill: none; fill-rule: nonzero; opacity: 1;"  points="2,-2 2,2 -2,2 " />
</g>
</svg>